# xmcd
#
# Track frame offsets: 
#        150
#        19815
#        41054
#        60939
#        75413
#        93077
#
# Disc length: 1507 seconds
#
# Revision: 0
# Processed by: cddbd v1.5.2PL0 Copyright (c) Steve Scherf et al.
# Submitted via: ExactAudioCopy v0.99pb4
#
DISCID=3705e106
DTITLE=DJ Spinna - Compositions3
DYEAR=2005
DGENRE=Hip-Hop
TTITLE0=Capitol
TTITLE1=Avenue
TTITLE2=Edge
TTITLE3=Amadeus
TTITLE4=Willing
TTITLE5=Shazzam
EXTD=
EXTT0=
EXTT1=
EXTT2=
EXTT3=
EXTT4=
EXTT5=
PLAYORDER=
